<?xml version="1.0" encoding="UTF-8"?>
<svg width="21px" height="43px" viewBox="0 0 21 43" version="1.1" xmlns="http://www.w3.org/2000/svg" xmlns:xlink="http://www.w3.org/1999/xlink">
    <title>Logo</title>
    <g id="Page-1" stroke="none" stroke-width="1" fill="none" fill-rule="evenodd">
        <g id="Artboard" transform="translate(-208.000000, -334.000000)" stroke="#4C4C4C">
            <g id="Logo" transform="translate(218.229508, 355.770492) rotate(90.000000) translate(-218.229508, -355.770492) translate(197.229508, 345.770492)">
                <path d="M9.70756827,-0.844588766 C10.2782626,-0.840560128 10.7700564,-0.621877175 11.1263115,-0.265622045 C11.480807,0.0888734607 11.7012651,0.577406374 11.7052796,1.11757047 L11.7052796,1.11757047 L11.8375667,18.9173677 C11.8414748,19.4432267 11.6318665,19.9208868 11.2898164,20.2680592 C10.9477663,20.6152315 10.4732744,20.8319162 9.95113128,20.8358105 C9.37894596,20.8318098 8.89041305,20.6113517 8.53591754,20.2568562 C8.18142204,19.9023607 7.96096394,19.4138278 7.95694947,18.8736637 L7.95694947,18.8736637 L7.8246624,1.07386648 C7.82075425,0.54800747 8.03036256,0.0703473992 8.37241265,-0.276824959 C8.71446275,-0.623997317 9.18895464,-0.840681963 9.70756827,-0.844588766 Z" id="Rectangle" transform="translate(9.831115, 9.995617) rotate(45.000000) translate(-9.831115, -9.995617) "></path>
                <path d="M25.8547769,1.62384325 C26.2545152,1.56176643 26.6704893,1.62684279 27.0309185,1.81693182 C27.2133217,1.91637457 27.3590315,2.02231089 27.4851026,2.1464445 L27.4851026,2.1464445 L40.2046807,15.0561221 C40.5837957,15.4409145 40.7733532,15.9422468 40.7733532,16.4435792 C40.7733532,16.9449115 40.5837957,17.4462439 40.2046807,17.8310362 C39.8356057,18.2056382 39.3496335,18.3951794 38.8622797,18.3988014 C38.3749258,18.4024234 37.8861902,18.2201261 37.5168491,17.8563121 L37.5168491,17.8563121 L26.1498463,6.31870124 L15.0126373,17.6237763 C14.6435623,17.9983782 14.1575902,18.1879195 13.6702363,18.1915414 C13.1828824,18.1951634 12.6941468,18.0128662 12.3247328,17.6489781 C11.9347497,17.2533063 11.7376825,16.746623 11.7340367,16.2413656 C11.730395,15.7366791 11.9198225,15.2342558 12.2995299,14.8488622 L12.2995299,14.8488622 L24.7923462,2.16896376 C25.0904983,1.86634677 25.464906,1.68438771 25.8547769,1.62384325 Z" id="Combined-Shape"></path>
            </g>
        </g>
    </g>
</svg>